<?xml version="1.0" encoding="UTF-8" standalone="no"?>
<svg baseProfile='full' viewBox="0 0 692 1188" id="templatemaker-boxlid" xmlns="http://www.w3.org/2000/svg" xmlns:dc="http://purl.org/dc/elements/1.1/" xmlns:xmp="http://ns.adobe.com/xap/1.0/" xmlns:cc="http://creativecommons.org/ns#" xmlns:rdf="http://www.w3.org/1999/02/22-rdf-syntax-ns#" xmlns:xmpRights="http://ns.adobe.com/xap/1.0/rights/" xmlns:x="adobe:ns:meta/" width="244.4000mm" height="419.4000mm">
<title>Box with lid</title>

 <metadata>
    <rdf:RDF
            xmlns:rdf="http://www.w3.org/1999/02/22-rdf-syntax-ns#"
            xmlns:dc="http://purl.org/dc/elements/1.1/"
            xmlns:cc="http://creativecommons.org/ns#"
            xmlns:xmp="http://ns.adobe.com/xap/1.0/">
        <cc:Work rdf:about="">
            <dc:title>Box with lid</dc:title>
            <dc:creator>
                <cc:Agent>
                    <dc:title>templatemaker.nl</dc:title>
                </cc:Agent>
            </dc:creator>
            <dc:rights>
                <cc:Agent>
                    <dc:title>templatemaker.nl © Please, refer to the very permissive license!</dc:title>
                </cc:Agent>
            </dc:rights>
            <dc:source>https://www.templatemaker.nl/en/boxlid?DOWNLOAD=1&amp;SHOWTILES=0&amp;UNITS=mm&amp;L=110&amp;W=110&amp;H=20&amp;LIDHEIGHT=40&amp;CLEAR=4&amp;GLUE=10&amp;ALPHA=60&amp;MARGIN=25&amp;PAGEPRESET=Auto&amp;RESOLUTION=72&amp;PERFORATION=5&amp;BRIDGE2PERFRATIO=1&amp;LAYOUT=VER&amp;ACCOUNTREF=templatemaker&amp;HTTP_ORIGIN=https%3A%2F%2Fwww.templatemaker.nl&amp;HTTP_REFERER=https%3A%2F%2Fwww.templatemaker.nl%2Fpt%2Fboxlid%2F%3FPAGEPRESET%3DAuto%26GLUE%3D10%26ALPHA%3D60%26L%3D110%26REQUEST%3DSVG%26H%3D20&amp;FLASKDEBUG=False</dc:source>
            <dc:description>Free “Box with lid” template. Generated with: 
DOWNLOAD=1
SHOWTILES=0
UNITS=mm
L=110
W=110
H=20
LIDHEIGHT=40
CLEAR=4
GLUE=10
ALPHA=60
MARGIN=25
PAGEPRESET=Auto
RESOLUTION=72
PERFORATION=5
BRIDGE2PERFRATIO=1
LAYOUT=VER
ACCOUNTREF=templatemaker
HTTP_ORIGIN=https://www.templatemaker.nl
HTTP_REFERER=https://www.templatemaker.nl/pt/boxlid/?PAGEPRESET=Auto&amp;GLUE=10&amp;ALPHA=60&amp;L=110&amp;REQUEST=SVG&amp;H=20
FLASKDEBUG=False

Check the licence at https://www.templatemaker.nl/licence.html 

Summary: You’re free to use Templatemaker.nl templates for personal projects, classroom use, and even commercial packaging and printing. But do not share, sell, or include the files digitally or in printed publications.</dc:description>
            <dc:date>2026-07-31T01:27:56+00:00</dc:date>
            <dc:format>image/svg+xml</dc:format>
            <dc:type rdf:resource="http://purl.org/dc/dcmitype/StillImage"/>
            <xmp:CreatorTool>https://www.templatemaker.nl/en/boxlid?DOWNLOAD=1&amp;SHOWTILES=0&amp;UNITS=mm&amp;L=110&amp;W=110&amp;H=20&amp;LIDHEIGHT=40&amp;CLEAR=4&amp;GLUE=10&amp;ALPHA=60&amp;MARGIN=25&amp;PAGEPRESET=Auto&amp;RESOLUTION=72&amp;PERFORATION=5&amp;BRIDGE2PERFRATIO=1&amp;LAYOUT=VER&amp;ACCOUNTREF=templatemaker&amp;HTTP_ORIGIN=https%3A%2F%2Fwww.templatemaker.nl&amp;HTTP_REFERER=https%3A%2F%2Fwww.templatemaker.nl%2Fpt%2Fboxlid%2F%3FPAGEPRESET%3DAuto%26GLUE%3D10%26ALPHA%3D60%26L%3D110%26REQUEST%3DSVG%26H%3D20&amp;FLASKDEBUG=False</xmp:CreatorTool>
            <xmp:CreateDate>2026-07-31T01:27:56+00:00</xmp:CreateDate>
        </cc:Work>
    </rdf:RDF>
</metadata>
<defs>
	<style type='text/css'>
		text{  font-family: sans-serif; }
	</style>
</defs>
	<g class="pagetext" font-size="10.0">
<svg width="70.86614173228347" height="70.86614173228347" x="0" y="0"  xmlns="http://www.w3.org/2000/svg" xml:space="preserve" viewBox="-20 -20 280 280"><path fill="#5F459F" d="m167.3 42.2-40.6-23.5c-7.6-4.4-16.8-4.4-24.4 0L56.9 44.9c36.8 2.7 73.6.2 110.4-2.7z"/>
    <path fill="#7D3F8E" stroke="#7D3F8E" stroke-width="0.1"
          d="M167.3 42.2c-36.8 2.9-73.6 5.4-110.3 2.6l-14.8 8.6C34.6 57.8 30 65.8 30 74.6v14.8c50-3 100.1-20.4 150.2-39.7l-12.9-7.5z"/>
    <path fill="#9E2E66" stroke="#9E2E66" stroke-width="0.1"
          d="M87.5 113.3c32.9-16.1 65.6-37.4 98.4-60.4l-5.6-3.2C130.1 69 80 86.3 29.9 89.3v46.2c.8-.1 1.6-.2 2.3-.4 18.4-5.4 36.9-12.7 55.3-21.8z"/>
    <path fill="#BE3233" stroke="#BE3233" stroke-width="0.1"
          d="M158.3 87.8c10.3-10.6 20.6-21.5 30.8-32.8-.8-.6-1.6-1.1-2.5-1.7l-.8-.4c-32.8 22.9-65.6 44.3-98.3 60.4-18.5 9.1-36.9 16.4-55.2 21.7-.8.2-1.5.3-2.3.4v8.4c0 3 .6 5.9 1.6 8.7 1.1 2.2 2.3 4.3 3.6 6.4 1.9 2.4 4.2 4.4 7 6l16.6 9.6c33.2-22.3 66.3-52.5 99.5-86.7z"/>
    <path fill="#D73733" stroke="#D73733" stroke-width="0.1"
          d="M182.5 76.9c3.5-6 7-12.2 10.4-18.3-1.1-1.4-2.4-2.6-3.8-3.6-10.3 11.3-20.5 22.2-30.8 32.8-33.1 34.2-66.4 64.4-99.6 86.8l43.5 25.1c.3.2.5.3.8.4.3-.4.5-.8.8-1.1 26.3-36.1 52.5-77.4 78.7-122.1z"/>
    <path fill="#EB4730" stroke="#EB4730" stroke-width="0.1"
          d="M195.7 62.6c-.8-1.4-1.7-2.7-2.8-3.9-3.5 6.2-6.9 12.2-10.4 18.3-26.2 44.6-52.4 85.9-78.7 122.1-.3.4-.5.8-.8 1.1 7.4 3.9 16.3 3.8 23.6-.5l33.6-19.3c3-9.7 6.1-19.4 9.1-29.3 8.8-28.8 17.7-58.3 26.4-88.5z"/>
    <path fill="#F3762D" stroke="#F3762D" stroke-width="0.1"
          d="M198.8 74.6c0-4.3-1.1-8.4-3.1-11.9-8.8 30.2-17.6 59.8-26.5 88.4-3.1 9.9-6.1 19.6-9.1 29.3l26.5-15.3c7.6-4.4 12.2-12.4 12.2-21.1V74.6z"/>
    <path fill="#FFF"
          d="M48.2 79.7c0-11.6 9.2-20.9 20.8-20.9 11.6 0 20.8 9.3 20.8 20.9 0 4.8 0 6.6 3.7 8.6l12.5 6.8v.3c-2.9 1.9-4.5 4.6-5.6 8.5h-.3c-.7-.4-1.4-.9-2.4-1.4l-10-5.3c-1.2-.6-1.9-.8-2.9-.8-4.3 0-6.2 4.3-15.9 4.3-11.6-.3-20.7-9.5-20.7-21zm0 59.1c0-11.6 9.2-20.8 20.8-20.8 9.6 0 11.6 4.4 15.9 4.4.9 0 1.7-.2 2.9-.8l9.2-4.9c3.8-1.9 4.8-3.3 5.5-5.9l1-3.8c1.6-5.6 4.2-8.5 10.2-10.7L158.1 80c11.8-4.2 20.1-3.2 22.5 3.9l-87.8 46.7c-3.2 1.8-3.2 3.7-3.2 8.2 0 11.6-9.2 20.9-20.8 20.9-11.5.1-20.6-9.3-20.6-20.9zm33.6-59.1c0-7.3-5.8-13-13-13-7.1 0-12.8 5.7-12.8 13 0 7.1 5.8 13 12.8 13 7.3-.1 13-5.9 13-13zm0 59.1c0-7.1-5.8-13-13-13-7.1 0-12.8 5.8-12.8 13 0 7.3 5.8 13 12.8 13 7.3 0 13-5.8 13-13zm37-32.2c0-2.3-1.9-4.1-4.2-4.1s-4.1 1.8-4.1 4.1c0 2.2 1.9 4.1 4.1 4.1 2.3 0 4.2-1.9 4.2-4.1zm-1.8 16.2v-.5l20.1-10.6 43.6 22.9c-2.4 7.3-10.6 8.5-22.5 4L117 122.8zm0 0"/>
    <path d="M20.6 217.7v-7h-1.9V208h1.9v-3.3h3.8v3.3h2.5v2.8h-2.5v6.6c0 1.3.6 1.7 1.6 1.7.3 0 .6-.1.8-.1v2.7c-.5.1-1 .1-1.8.1-3 0-4.4-1.1-4.4-4.1zm7.5-3c0-4.3 2.6-7 6.5-7 4 0 6.4 2.7 6.4 6.8v1.1h-9.4c.1 2.2 1.2 3.4 3.1 3.4 1.5 0 2.5-.8 2.7-1.6v-.1h3.4l-.1.2c-.4 2-2.2 4.3-6.1 4.3-4 0-6.5-2.7-6.5-7.1zm3.7-1.4h5.8c-.2-1.9-1.3-2.9-2.8-2.9-1.6.1-2.8 1-3 2.9zM43 208h3.7v2.2h.1c.5-1.6 1.9-2.5 3.8-2.5s3.3 1 3.8 2.8h.1c.6-1.7 2.2-2.8 4.2-2.8 2.6 0 4.4 1.8 4.4 4.6v9.2h-3.7v-8.3c0-1.6-.8-2.4-2.2-2.4-1.4 0-2.3 1.1-2.3 2.6v8.2h-3.5v-8.5c0-1.4-.8-2.3-2.2-2.3-1.4 0-2.3 1.1-2.3 2.6v8.2h-3.7V208H43zm22.3 0H69v2.4c.8-1.7 2.2-2.6 4.1-2.6 3.4 0 5.6 2.6 5.6 7.1 0 4.4-2.1 7-5.5 7-1.9 0-3.4-1-4.2-2.6h-.1v6.8h-3.7V208zm9.7 6.7c0-2.5-1.2-4-3-4s-3 1.6-3 4c0 2.5 1.2 4 3 4s3-1.5 3-4zm5.7 6.8h3.7v-18.2h-3.7v18.2zm5.7-3.8c0-2.5 1.9-3.9 5.2-4.1l3.4-.2v-.8c0-1.2-.8-1.9-2.2-1.9-1.4 0-2.2.7-2.4 1.5v.2H87v-.4c.2-2.5 2.3-4.3 5.9-4.3 3.5 0 5.8 1.8 5.8 4.5v9.3H95v-2.1c-.8 1.4-2.2 2.2-4 2.2-2.8.1-4.6-1.5-4.6-3.9zm5.7 1.3c1.6 0 2.8-1.1 2.8-2.5v-1l-2.8.1c-1.4.1-2.2.7-2.2 1.6.1 1.2.9 1.8 2.2 1.8zm9.9-1.3v-7h-1.9V208h1.9v-3.3h3.8v3.3h2.5v2.8h-2.5v6.6c0 1.3.6 1.7 1.7 1.7.3 0 .6-.1.8-.1v2.7c-.4.1-1 .1-1.8.1-3.1 0-4.5-1.1-4.5-4.1zm7.6-3c0-4.3 2.6-7 6.5-7 4 0 6.4 2.7 6.4 6.8v1.1h-9.3c.1 2.2 1.2 3.4 3.1 3.4 1.5 0 2.5-.8 2.7-1.6v-.1h3.4v.2c-.5 2-2.2 4.3-6.2 4.3-4.1 0-6.6-2.7-6.6-7.1zm3.7-1.4h5.8c-.2-1.9-1.4-2.9-2.9-2.9-1.6.1-2.7 1-2.9 2.9zm11.1-5.3h3.7v2.2h.1c.5-1.6 1.9-2.5 3.8-2.5s3.3 1 3.7 2.8h.1c.6-1.7 2.2-2.8 4.2-2.8 2.6 0 4.4 1.8 4.4 4.6v9.2h-3.7v-8.3c0-1.6-.8-2.4-2.2-2.4s-2.3 1.1-2.3 2.6v8.2h-3.6v-8.5c0-1.4-.8-2.3-2.2-2.3-1.4 0-2.3 1.1-2.3 2.6v8.2h-3.8V208zm21.9 9.7c0-2.5 1.9-3.9 5.2-4.1l3.4-.2v-.8c0-1.2-.8-1.9-2.2-1.9-1.3 0-2.2.7-2.4 1.5v.2h-3.4v-.4c.2-2.5 2.3-4.3 5.9-4.3 3.5 0 5.8 1.8 5.8 4.5v9.3h-3.7v-2.1h-.1c-.8 1.4-2.2 2.2-4 2.2-2.7.1-4.5-1.5-4.5-3.9zm5.7 1.3c1.6 0 2.8-1.1 2.8-2.5v-1l-2.8.1c-1.4.1-2.2.7-2.2 1.6.1 1.2 1 1.8 2.2 1.8zm9-15.7h3.7v10.1h.1l4.6-5.4h4.2l-5.1 5.9 5.4 7.7h-4.3l-3.9-5.6-1 1.1v4.5H161v-18.3zm12.7 11.4c0-4.3 2.6-7 6.5-7 4 0 6.4 2.7 6.4 6.8v1.1h-9.3c.1 2.2 1.2 3.4 3.1 3.4 1.5 0 2.5-.8 2.7-1.6v-.1h3.4v.2c-.5 2-2.2 4.3-6.2 4.3s-6.6-2.7-6.6-7.1zm3.7-1.4h5.8c-.2-1.9-1.4-2.9-2.9-2.9s-2.7 1-2.9 2.9zm11.2-5.3h3.7v2.4h.1c.4-1.7 1.5-2.6 3.1-2.6.4 0 .8.1 1.1.1v3.2c-.3-.2-.8-.2-1.4-.2-1.8 0-2.8 1.1-2.8 3.1v7.6h-3.7V208zm7.9 11.7c0-1.1.9-2 2-2s2 .9 2 2-.9 2-2 2-2-.9-2-2zm6.3-11.7h3.7v2.2h.1c.7-1.6 2.1-2.5 4.1-2.5 3 0 4.6 1.9 4.6 5.1v8.8h-3.7v-7.9c0-1.8-.8-2.8-2.5-2.8-1.6 0-2.7 1.2-2.7 3v7.8h-3.7V208zm15 13.5h3.7v-18.2h-3.7v18.2z"/></svg>	</g>
	<g id="labels" class="labels" fill='#97989a' stroke='none' stroke-width='0.0' >
	</g>
	<g id="pagetext" class="pagetext" fill='#000000' stroke='none' stroke-width='0.0' >
<text dominant-baseline="middle" text-anchor="start" font-family="sans-serif" font-size="11.3" text-decoration="none" transform="translate(70.87,34.58) rotate(0.0)">Box with lid 110×110×20 LID 40 (mm)</text><text dominant-baseline="middle" text-anchor="start" font-family="sans-serif" font-size="11.3" text-decoration="none" transform="translate(70.87,1152.57) rotate(0.0)">templatemaker.nl © Please, refer to the very permissive license!</text>	</g>
	<g id="fold" class="fold" fill='none' stroke='#00adee' stroke-width='0.75' >
		<path id="merged-fold-outside-flap-1" d="M 70.87 507.69 L 184.25 507.69"/>
		<path id="merged-fold-outside-flap-2" d="M 508.54 507.69 L 621.92 507.69"/>
		<path id="merged-fold-outside-flap-3" d="M 621.92 183.4 L 508.54 183.4"/>
		<path id="merged-fold-outside-flap-4" d="M 184.25 183.4 L 70.87 183.4"/>
		<path id="merged-fold-inside" d="M 184.25 507.69 L 508.54 507.69 L 508.54 183.4 L 184.25 183.4 L 184.25 507.69"/>
		<path id="merged-fold-anonymous-path-6" d="M 70.87 1060.44 L 127.56 1060.44"/>
		<path id="merged-fold-anonymous-path-7" d="M 439.37 1060.44 L 496.06 1060.44"/>
		<path id="merged-fold-anonymous-path-8" d="M 496.06 748.63 L 439.37 748.63"/>
		<path id="merged-fold-anonymous-path-9" d="M 127.56 748.63 L 70.87 748.63"/>
		<path id="merged-fold-anonymous-path-10" d="M 127.56 1060.44 L 439.37 1060.44 L 439.37 748.63 L 127.56 748.63 L 127.56 1060.44"/>
	</g>
	<g id="cut" class="cut" fill='none' stroke='#d41a5a' stroke-width='2.0' >
		<path id="merged-cut-outside" d="M 70.87 507.69 L 87.23 536.03 L 167.89 536.03 L 184.25 507.69 L 184.25 621.07 L 508.54 621.07 L 508.54 507.69 L 524.9 536.03 L 605.56 536.03 L 621.92 507.69 L 621.92 183.4 L 605.56 155.06 L 524.9 155.06 L 508.54 183.4 L 508.54 70.02 L 184.25 70.02 L 184.25 183.4 L 167.89 155.06 L 87.23 155.06 L 70.87 183.4 L 70.87 507.69"/>
		<path id="merged-cut-anonymous-path-2" d="M 70.87 1060.44 L 87.23 1088.79 L 111.19 1088.79 L 127.56 1060.44 L 127.56 1117.13 L 439.37 1117.13 L 439.37 1060.44 L 455.74 1088.79 L 479.7 1088.79 L 496.06 1060.44 L 496.06 748.63 L 479.7 720.28 L 455.74 720.28 L 439.37 748.63 L 439.37 691.94 L 127.56 691.94 L 127.56 748.63 L 111.19 720.28 L 87.23 720.28 L 70.87 748.63 L 70.87 1060.44"/>
	</g>
</svg>