  0
SECTION
  2
HEADER
  9
$ACADVER
  1
AC1014
  9
$HANDSEED
  5
FFFF
  9
$INSUNITS
 70
     4
  9
$MEASUREMENT
 70
     1
  0
ENDSEC
  0
SECTION
  2
TABLES
  0
TABLE
  2
VPORT
  5
8
330
0
100
AcDbSymbolTable
 70
     4
  0
VPORT
  5
2E
330
8
100
AcDbSymbolTableRecord
100
AcDbViewportTableRecord
  2
*ACTIVE
 70
     0
 10
0.0
 20
0.0
 11
1.0
 21
1.0
 12
210.0
 22
148.5
 13
0.0
 23
0.0
 14
10.0
 24
10.0
 15
10.0
 25
10.0
 16
0.0
 26
0.0
 36
1.0
 17
0.0
 27
0.0
 37
0.0
 40
341.0
 41
1.24
 42
50.0
 43
0.0
 44
0.0
 50
0.0
 51
0.0
 71
     0
 72
   100
 73
     1
 74
     3
 75
     0
 76
     0
 77
     0
 78
     0
  0
ENDTAB
  0
TABLE
  2
LTYPE
  5
5
330
0
100
AcDbSymbolTable
 70
     1
  0
LTYPE
  5
14
330
5
100
AcDbSymbolTableRecord
100
AcDbLinetypeTableRecord
  2
BYBLOCK
 70
     0
  3

 72
    65
 73
     0
 40
0.0
  0
LTYPE
  5
15
330
5
100
AcDbSymbolTableRecord
100
AcDbLinetypeTableRecord
  2
BYLAYER
 70
     0
  3

 72
    65
 73
     0
 40
0.0
  0
LTYPE
  5
16
330
5
100
AcDbSymbolTableRecord
100
AcDbLinetypeTableRecord
  2
CONTINUOUS
 70
     0
  3
Solid line
 72
    65
 73
     0
 40
0.0
  0
ENDTAB
  0
TABLE
  2
LAYER
  5
2
100
AcDbSymbolTable
 70
1
  0
LAYER
  5
50
100
AcDbSymbolTableRecord
100
AcDbLayerTableRecord
  2
0
 70
0
  6
CONTINUOUS
  0
ENDTAB
  0
TABLE
  2
STYLE
  5
3
330
0
100
AcDbSymbolTable
 70
     1
  0
STYLE
  5
11
330
3
100
AcDbSymbolTableRecord
100
AcDbTextStyleTableRecord
  2
STANDARD
 70
     0
 40
0.0
 41
1.0
 50
0.0
 71
     0
 42
2.5
  3
txt
  4

  0
ENDTAB
  0
TABLE
  2
VIEW
  5
6
330
0
100
AcDbSymbolTable
 70
     0
  0
ENDTAB
  0
TABLE
  2
UCS
  5
7
330
0
100
AcDbSymbolTable
 70
     0
  0
ENDTAB
  0
TABLE
  2
APPID
  5
9
330
0
100
AcDbSymbolTable
 70
     2
  0
APPID
  5
12
330
9
100
AcDbSymbolTableRecord
100
AcDbRegAppTableRecord
  2
ACAD
 70
     0
  0
ENDTAB
  0
TABLE
  2
DIMSTYLE
  5
A
330
0
100
AcDbSymbolTable
 70
     1
  0
DIMSTYLE
105
27
330
A
100
AcDbSymbolTableRecord
100
AcDbDimStyleTableRecord
  2
ISO-25
 70
     0
  3

  4

  5

  6

  7

 40
1.0
 41
2.5
 42
0.625
 43
3.75
 44
1.25
 45
0.0
 46
0.0
 47
0.0
 48
0.0
140
2.5
141
2.5
142
0.0
143
0.03937007874016
144
1.0
145
0.0
146
1.0
147
0.625
 71
     0
 72
     0
 73
     0
 74
     0
 75
     0
 76
     0
 77
     1
 78
     8
170
     0
171
     3
172
     1
173
     0
174
     0
175
     0
176
     0
177
     0
178
     0
270
     2
271
     2
272
     2
273
     2
274
     3
340
11
275
     0
280
     0
281
     0
282
     0
283
     0
284
     8
285
     0
286
     0
287
     3
288
     0
  0
ENDTAB
  0
TABLE
  2
BLOCK_RECORD
  5
1
330
0
100
AcDbSymbolTable
 70
     1
  0
BLOCK_RECORD
  5
1F
330
1
100
AcDbSymbolTableRecord
100
AcDbBlockTableRecord
  2
*MODEL_SPACE
  0
BLOCK_RECORD
  5
1B
330
1
100
AcDbSymbolTableRecord
100
AcDbBlockTableRecord
  2
*PAPER_SPACE
  0
ENDTAB
  0
ENDSEC
  0
SECTION
  2
BLOCKS
  0
BLOCK
  5
20
330
1F
100
AcDbEntity
  8
0
100
AcDbBlockBegin
  2
*MODEL_SPACE
 70
     0
 10
0.0
 20
0.0
 30
0.0
  3
*MODEL_SPACE
  1

  0
ENDBLK
  5
21
330
1F
100
AcDbEntity
  8
0
100
AcDbBlockEnd
  0
BLOCK
  5
1C
330
1B
100
AcDbEntity
 67
     1
  8
0
100
AcDbBlockBegin
  2
*PAPER_SPACE
  1

  0
ENDBLK
  5
1D
330
1B
100
AcDbEntity
 67
     1
  8
0
100
AcDbBlockEnd
  0
ENDSEC
  0
SECTION
  2
ENTITIES
  0
LWPOLYLINE
  5
100
100
AcDbEntity
  8
0
 62
7
100
AcDbPolyline
 90
2
 70
0
 10
75.123675
 20
79.628975
 30
0.0
 10
125.204947
 20
79.628975
 30
0.0
  0
LWPOLYLINE
  5
101
100
AcDbEntity
  8
0
 62
7
100
AcDbPolyline
 90
2
 70
0
 10
125.204947
 20
139.727915
 30
0.0
 10
75.123675
 20
139.727915
 30
0.0
  0
LWPOLYLINE
  5
102
100
AcDbEntity
  8
0
 62
7
100
AcDbPolyline
 90
4
 70
0
 10
35.056537
 20
179.795053
 30
0.0
 10
165.272085
 20
179.795053
 30
0.0
 10
165.272085
 20
239.893993
 30
0.0
 10
125.204947
 20
239.893993
 30
0.0
  0
LWPOLYLINE
  5
103
100
AcDbEntity
  8
0
 62
7
100
AcDbPolyline
 90
3
 70
0
 10
75.123675
 20
239.893993
 30
0.0
 10
35.056537
 20
239.893993
 30
0.0
 10
35.056537
 20
179.795053
 30
0.0
  0
LWPOLYLINE
  5
104
100
AcDbEntity
  8
0
 62
7
100
AcDbPolyline
 90
2
 70
0
 10
75.123675
 20
179.795053
 30
0.0
 10
75.123675
 20
239.893993
 30
0.0
  0
LWPOLYLINE
  5
105
100
AcDbEntity
  8
0
 62
7
100
AcDbPolyline
 90
2
 70
0
 10
125.204947
 20
239.893993
 30
0.0
 10
125.204947
 20
179.795053
 30
0.0
  0
LWPOLYLINE
  5
106
100
AcDbEntity
  8
0
 62
7
100
AcDbPolyline
 90
2
 70
0
 10
81.134276
 20
40.565371
 30
0.0
 10
119.194346
 20
40.565371
 30
0.0
  0
LWPOLYLINE
  5
107
100
AcDbEntity
  8
0
 62
7
100
AcDbPolyline
 90
3
 70
0
 10
75.123675
 20
39.565371
 30
0.0
 10
80.130742
 20
39.565371
 30
0.0
 10
81.134276
 20
40.565371
 30
0.0
  0
LWPOLYLINE
  5
108
100
AcDbEntity
  8
0
 62
7
100
AcDbPolyline
 90
3
 70
0
 10
119.194346
 20
40.565371
 30
0.0
 10
120.197880
 20
39.565371
 30
0.0
 10
125.204947
 20
39.565371
 30
0.0
  0
SPLINE
  5
109
100
AcDbEntity
  8
0
 62
7
100
AcDbSpline
 70
8
 71
3
 72
8
 73
4
 74
0
 40
0
 40
0
 40
0
 40
0
 40
1
 40
1
 40
1
 40
1
 10
75.625442
 20
35.056537
 30
0.0
 10
75.627392
 20
29.526691
 30
0.0
 10
80.109730
 20
25.044353
 30
0.0
 10
85.639576
 20
25.042403
 30
0.0
  0
LWPOLYLINE
  5
10a
100
AcDbEntity
  8
0
 62
7
100
AcDbPolyline
 90
2
 70
0
 10
75.625442
 20
39.565371
 30
0.0
 10
75.625442
 20
35.056537
 30
0.0
  0
SPLINE
  5
10b
100
AcDbEntity
  8
0
 62
7
100
AcDbSpline
 70
8
 71
3
 72
8
 73
4
 74
0
 40
0
 40
0
 40
0
 40
0
 40
1
 40
1
 40
1
 40
1
 10
114.689046
 20
25.042403
 30
0.0
 10
120.218892
 20
25.044353
 30
0.0
 10
124.701230
 20
29.526691
 30
0.0
 10
124.703180
 20
35.056537
 30
0.0
  0
LWPOLYLINE
  5
10c
100
AcDbEntity
  8
0
 62
7
100
AcDbPolyline
 90
2
 70
0
 10
85.639576
 20
25.042403
 30
0.0
 10
114.689046
 20
25.042403
 30
0.0
  0
LWPOLYLINE
  5
10d
100
AcDbEntity
  8
0
 62
7
100
AcDbPolyline
 90
2
 70
0
 10
124.703180
 20
35.056537
 30
0.0
 10
124.703180
 20
39.565371
 30
0.0
  0
SPLINE
  5
10e
100
AcDbEntity
  8
0
 62
7
100
AcDbSpline
 70
8
 71
3
 72
8
 73
4
 74
0
 40
0
 40
0
 40
0
 40
0
 40
1
 40
1
 40
1
 40
1
 10
107.674912
 20
239.893993
 30
0.0
 10
107.674912
 20
237.901589
 30
0.0
 10
106.883432
 20
235.990789
 30
0.0
 10
105.474590
 20
234.581947
 30
0.0
  0
SPLINE
  5
10f
100
AcDbEntity
  8
0
 62
7
100
AcDbSpline
 70
8
 71
3
 72
8
 73
4
 74
0
 40
0
 40
0
 40
0
 40
0
 40
1
 40
1
 40
1
 40
1
 10
105.474590
 20
234.581947
 30
0.0
 10
104.065748
 20
233.173105
 30
0.0
 10
102.154948
 20
232.381625
 30
0.0
 10
100.162544
 20
232.381625
 30
0.0
  0
LWPOLYLINE
  5
110
100
AcDbEntity
  8
0
 62
7
100
AcDbPolyline
 90
23
 70
0
 10
125.204947
 20
39.565371
 30
0.0
 10
125.204947
 20
79.628975
 30
0.0
 10
125.204947
 20
139.727915
 30
0.0
 10
125.204947
 20
179.795053
 30
0.0
 10
125.706714
 20
179.795053
 30
0.0
 10
127.473498
 20
169.777385
 30
0.0
 10
165.272085
 20
169.777385
 30
0.0
 10
165.272085
 20
179.795053
 30
0.0
 10
165.272085
 20
180.296820
 30
0.0
 10
175.286219
 20
182.060071
 30
0.0
 10
175.286219
 20
237.625442
 30
0.0
 10
165.272085
 20
239.392226
 30
0.0
 10
165.272085
 20
239.893993
 30
0.0
 10
162.265018
 20
242.897527
 30
0.0
 10
160.777385
 20
259.925795
 30
0.0
 10
131.466431
 20
259.925795
 30
0.0
 10
127.710247
 20
245.901060
 30
0.0
 10
126.706714
 20
244.901060
 30
0.0
 10
125.706714
 20
243.901060
 30
0.0
 10
125.706714
 20
239.893993
 30
0.0
 10
125.204947
 20
239.893993
 30
0.0
 10
107.674912
 20
239.893993
 30
0.0
 10
107.674912
 20
239.893993
 30
0.0
  0
SPLINE
  5
111
100
AcDbEntity
  8
0
 62
7
100
AcDbSpline
 70
8
 71
3
 72
8
 73
4
 74
0
 40
0
 40
0
 40
0
 40
0
 40
1
 40
1
 40
1
 40
1
 10
100.162544
 20
232.381625
 30
0.0
 10
98.170140
 20
232.381625
 30
0.0
 10
96.259340
 20
233.173105
 30
0.0
 10
94.850498
 20
234.581947
 30
0.0
  0
SPLINE
  5
112
100
AcDbEntity
  8
0
 62
7
100
AcDbSpline
 70
8
 71
3
 72
8
 73
4
 74
0
 40
0
 40
0
 40
0
 40
0
 40
1
 40
1
 40
1
 40
1
 10
94.850498
 20
234.581947
 30
0.0
 10
93.441656
 20
235.990789
 30
0.0
 10
92.650177
 20
237.901589
 30
0.0
 10
92.650177
 20
239.893993
 30
0.0
  0
LWPOLYLINE
  5
113
100
AcDbEntity
  8
0
 62
7
100
AcDbPolyline
 90
3
 70
1
 10
100.162544
 20
232.381625
 30
0.0
 10
100.162544
 20
232.381625
 30
0.0
 10
100.162544
 20
232.381625
 30
0.0
  0
LWPOLYLINE
  5
114
100
AcDbEntity
  8
0
 62
7
100
AcDbPolyline
 90
23
 70
0
 10
92.650177
 20
239.893993
 30
0.0
 10
92.650177
 20
239.893993
 30
0.0
 10
75.123675
 20
239.893993
 30
0.0
 10
74.621908
 20
239.893993
 30
0.0
 10
74.621908
 20
243.901060
 30
0.0
 10
73.618375
 20
244.901060
 30
0.0
 10
72.618375
 20
245.901060
 30
0.0
 10
68.862191
 20
259.925795
 30
0.0
 10
39.551237
 20
259.925795
 30
0.0
 10
38.060071
 20
242.897527
 30
0.0
 10
35.056537
 20
239.893993
 30
0.0
 10
35.056537
 20
239.392226
 30
0.0
 10
25.042403
 20
237.625442
 30
0.0
 10
25.042403
 20
182.060071
 30
0.0
 10
35.056537
 20
180.296820
 30
0.0
 10
35.056537
 20
179.795053
 30
0.0
 10
35.056537
 20
169.777385
 30
0.0
 10
72.855124
 20
169.777385
 30
0.0
 10
74.621908
 20
179.795053
 30
0.0
 10
75.123675
 20
179.795053
 30
0.0
 10
75.123675
 20
139.727915
 30
0.0
 10
75.123675
 20
79.628975
 30
0.0
 10
75.123675
 20
39.565371
 30
0.0
  0
ENDSEC
  0
SECTION
  2
OBJECTS
  0
DICTIONARY
  5
C
330
0
100
AcDbDictionary
  3
ACAD_GROUP
350
D
  3
ACAD_MLINESTYLE
350
17
  0
DICTIONARY
  5
D
330
C
100
AcDbDictionary
  0
DICTIONARY
  5
1A
330
C
100
AcDbDictionary
  0
DICTIONARY
  5
17
330
C
100
AcDbDictionary
  3
STANDARD
350
18
  0
DICTIONARY
  5
19
330
C
100
AcDbDictionary
  0
ENDSEC
  0
EOF
